<svg width="48" height="48" viewBox="0 0 48 48" fill="none" xmlns="http://www.w3.org/2000/svg">
<path d="M32.0936 12.6383C32.5123 12.6383 33.226 12.7045 34.2347 12.8369C35.2435 12.9693 36.3473 13.3475 37.5464 13.9716C38.7645 14.5768 39.8684 15.5887 40.858 17.0071C40.8009 17.0638 40.525 17.2719 40.0301 17.6312C39.5353 17.9716 38.9833 18.4823 38.3743 19.1631C37.7653 19.8251 37.2324 20.6761 36.7756 21.7163C36.3188 22.7376 36.0904 23.9574 36.0904 25.3759C36.0904 27.0024 36.3759 28.383 36.9469 29.5177C37.5369 30.6525 38.2125 31.5697 38.9738 32.2695C39.7542 32.9504 40.4393 33.4515 41.0293 33.7731C41.6384 34.0946 41.9619 34.2648 42 34.2837C41.981 34.3593 41.7335 35.0307 41.2577 36.2979C40.8009 37.565 40.0396 38.974 38.9738 40.5248C38.0412 41.8676 37.0325 43.1064 35.9477 44.2411C34.8818 45.3759 33.5971 45.9433 32.0936 45.9433C31.0849 45.9433 30.2569 45.8014 29.6098 45.5177C28.9627 45.2151 28.2966 44.922 27.6114 44.6383C26.9262 44.3357 26.0032 44.1844 24.8422 44.1844C23.7193 44.1844 22.7772 44.3357 22.0159 44.6383C21.2736 44.9409 20.5599 45.2435 19.8747 45.5461C19.2086 45.8487 18.4187 46 17.5052 46C16.1158 46 14.8977 45.4515 13.8509 44.3546C12.8041 43.2577 11.7288 41.9433 10.6249 40.4114C9.34972 38.5957 8.25535 36.383 7.34179 33.7731C6.44726 31.1442 6 28.4965 6 25.8298C6 22.974 6.54243 20.5816 7.62728 18.6525C8.71213 16.7045 10.1015 15.2388 11.7954 14.2553C13.5083 13.253 15.2783 12.7518 17.1055 12.7518C18.0761 12.7518 18.9897 12.9125 19.8462 13.234C20.7026 13.5366 21.502 13.8487 22.2442 14.1702C23.0056 14.4917 23.6907 14.6525 24.2998 14.6525C24.8898 14.6525 25.5749 14.4823 26.3553 14.1418C27.1356 13.8014 28.0111 13.4704 28.9818 13.1489C29.9524 12.8085 30.9897 12.6383 32.0936 12.6383ZM30.5234 9.03546C29.7811 9.92435 28.8485 10.6714 27.7256 11.2766C26.6027 11.8629 25.5369 12.156 24.5282 12.156C24.3188 12.156 24.119 12.1371 23.9286 12.0993C23.9096 12.0426 23.8906 11.9385 23.8715 11.7872C23.8525 11.6359 23.843 11.4752 23.843 11.305C23.843 10.1702 24.0904 9.07329 24.5852 8.01418C25.0801 6.93617 25.6416 6.04728 26.2696 5.34752C27.069 4.40189 28.0777 3.61702 29.2958 2.99291C30.5139 2.36879 31.6749 2.03783 32.7787 2C32.8358 2.24586 32.8644 2.53901 32.8644 2.87943C32.8644 4.01418 32.6455 5.12057 32.2078 6.19858C31.77 7.25768 31.2086 8.20331 30.5234 9.03546Z" fill="black"/>
</svg>
