<svg width="16" height="16" viewBox="0 0 16 16" fill="none" xmlns="http://www.w3.org/2000/svg">
<g id="attention-circle" clip-path="url(#clip0_2158_10603)">
<path id="Icon (Stroke)" fill-rule="evenodd" clip-rule="evenodd" d="M8.00016 1.83325C4.59441 1.83325 1.8335 4.59416 1.8335 7.99992C1.8335 11.4057 4.59441 14.1666 8.00016 14.1666C11.4059 14.1666 14.1668 11.4057 14.1668 7.99992C14.1668 4.59416 11.4059 1.83325 8.00016 1.83325ZM0.833496 7.99992C0.833496 4.04188 4.04212 0.833252 8.00016 0.833252C11.9582 0.833252 15.1668 4.04188 15.1668 7.99992C15.1668 11.958 11.9582 15.1666 8.00016 15.1666C4.04212 15.1666 0.833496 11.958 0.833496 7.99992ZM8.00016 4.49992C8.27631 4.49992 8.50016 4.72378 8.50016 4.99992V9.66659C8.50016 9.94273 8.27631 10.1666 8.00016 10.1666C7.72402 10.1666 7.50016 9.94273 7.50016 9.66659V4.99992C7.50016 4.72378 7.72402 4.49992 8.00016 4.49992ZM7.50016 10.9999C7.50016 10.7238 7.72402 10.4999 8.00016 10.4999H8.00683C8.28297 10.4999 8.50683 10.7238 8.50683 10.9999C8.50683 11.2761 8.28297 11.4999 8.00683 11.4999H8.00016C7.72402 11.4999 7.50016 11.2761 7.50016 10.9999Z" fill="currentColor"/>
</g>
<defs>
<clipPath id="clip0_2158_10603">
<rect width="16" height="16" fill="white"/>
</clipPath>
</defs>
</svg>
