<svg width="48" height="48" viewBox="0 0 48 48" fill="none" xmlns="http://www.w3.org/2000/svg">
<g id="eye-off">
<path id="Icon (Stroke)" fill-rule="evenodd" clip-rule="evenodd" d="M4.6461 4.9477C5.22727 4.35733 6.17699 4.34988 6.76736 4.93104L14.1835 12.2316C14.2864 12.3091 14.3807 12.4011 14.4631 12.5068L20.7394 18.6854C20.7413 18.6872 20.7431 18.689 20.7449 18.6907L29.3591 27.1707C29.3609 27.1725 29.3627 27.1742 29.3644 27.176L35.6232 33.3372C35.7431 33.4238 35.8518 33.5296 35.9445 33.6536L43.3372 40.931C43.9276 41.5122 43.9351 42.4619 43.3539 43.0523C42.7727 43.6427 41.823 43.6501 41.2326 43.069L34.5264 36.4672C31.5818 38.2325 28.0529 39.5 24 39.5C18.3579 39.5 13.7376 37.0462 10.2839 34.2087C6.83427 31.3744 4.46296 28.0902 3.2736 26.2363C3.25877 26.2132 3.2438 26.19 3.22871 26.1665C2.98802 25.7929 2.72002 25.3768 2.58267 24.7868C2.47241 24.3132 2.47245 23.6863 2.58277 23.2127C2.7202 22.6227 2.989 22.2055 3.2304 21.8308C3.24561 21.8072 3.26071 21.7838 3.27567 21.7605C4.53447 19.7988 7.13365 16.2089 10.9513 13.2595L4.66276 7.06896C4.07239 6.48779 4.06493 5.53807 4.6461 4.9477ZM13.1114 15.3859C9.50736 18.0753 7.01042 21.4953 5.80052 23.3807C5.64996 23.6153 5.5851 23.7185 5.54198 23.8001C5.51801 23.8455 5.51175 23.8637 5.50649 23.8851C5.50598 23.8886 5.50508 23.8955 5.50409 23.9059C5.50172 23.9306 5.5 23.9632 5.5 23.9999C5.5 24.0366 5.50171 24.0693 5.50408 24.094C5.50507 24.1043 5.50597 24.1112 5.50648 24.1147C5.51184 24.1365 5.51806 24.1546 5.5417 24.1994C5.58442 24.2803 5.6487 24.3827 5.79864 24.6164C6.89573 26.3265 9.07054 29.3291 12.1883 31.8907C15.3021 34.4489 19.2705 36.5 24 36.5C27.1077 36.5 29.884 35.6155 32.3075 34.2829L28.2062 30.2455C27.0008 31.0384 25.5532 31.5 24 31.5C19.8277 31.5 16.405 28.1643 16.405 24C16.405 22.4709 16.8693 21.0495 17.6623 19.8659L13.1114 15.3859ZM19.865 22.0343C19.5696 22.6291 19.405 23.2959 19.405 24C19.405 26.4632 21.44 28.5 24 28.5C24.7127 28.5 25.3856 28.3418 25.9857 28.0596L19.865 22.0343ZM24 11.5C23.1965 11.5 22.4169 11.559 21.6613 11.669C20.8415 11.7883 20.0802 11.2205 19.9609 10.4007C19.8416 9.58089 20.4094 8.81959 21.2292 8.70028C22.125 8.5699 23.049 8.5 24 8.5C29.6421 8.5 34.2624 10.9538 37.7161 13.7913C41.1657 16.6256 43.537 19.9098 44.7264 21.7637C44.7412 21.7868 44.7562 21.81 44.7713 21.8335C45.012 22.2072 45.28 22.6232 45.4173 23.2133C45.5276 23.6869 45.5275 24.3139 45.4172 24.7875C45.2797 25.3776 45.0105 25.7954 44.7687 26.1707C44.7534 26.1944 44.7382 26.2179 44.7232 26.2413C44.0857 27.2345 43.1175 28.6248 41.8349 30.1328C41.2981 30.7638 40.3515 30.8402 39.7204 30.3035C39.0894 29.7668 39.013 28.8201 39.5497 28.1891C40.7281 26.8037 41.6175 25.5261 42.1984 24.6209C42.3493 24.3858 42.4145 24.2821 42.4579 24.2001C42.482 24.1544 42.4883 24.1361 42.4935 24.1149C42.494 24.1114 42.4949 24.1045 42.4959 24.0942C42.4983 24.0695 42.5 24.0368 42.5 24.0001C42.5 23.9634 42.4983 23.9308 42.4959 23.906C42.4949 23.8957 42.494 23.8888 42.4935 23.8853C42.4882 23.8635 42.4819 23.8454 42.4583 23.8007C42.4156 23.7197 42.3513 23.6173 42.2013 23.3836C41.1043 21.6735 38.9294 18.6709 35.8116 16.1093C32.6979 13.5511 28.7295 11.5 24 11.5Z" fill="currentColor"/>
</g>
</svg>
