<svg width="48" height="48" viewBox="0 0 48 48" fill="none" xmlns="http://www.w3.org/2000/svg">
<g id="eye">
<path id="Icon (Stroke)" fill-rule="evenodd" clip-rule="evenodd" d="M12.397 16.1019C9.32941 18.6622 7.18884 21.664 6.1085 23.3746C5.96097 23.6082 5.89756 23.7108 5.85535 23.792C5.83139 23.8381 5.82501 23.857 5.81926 23.8809C5.81874 23.8845 5.81773 23.892 5.81662 23.9038C5.81422 23.9293 5.8125 23.9626 5.8125 24C5.8125 24.0374 5.81422 24.0707 5.81662 24.0962C5.81773 24.108 5.81874 24.1155 5.81926 24.1191C5.82501 24.143 5.83139 24.1619 5.85535 24.208C5.89756 24.2892 5.96097 24.3918 6.1085 24.6254C7.18884 26.336 9.32941 29.3378 12.397 31.8981C15.461 34.4553 19.3596 36.5 24.0008 36.5C28.6421 36.5 32.5406 34.4553 35.6046 31.8981C38.6722 29.3378 40.8128 26.336 41.8931 24.6254C42.0406 24.3918 42.1041 24.2892 42.1463 24.208C42.1702 24.1619 42.1766 24.143 42.1824 24.1191C42.1829 24.1155 42.1839 24.108 42.185 24.0962C42.1874 24.0707 42.1891 24.0374 42.1891 24C42.1891 23.9626 42.1874 23.9293 42.185 23.9038C42.1839 23.892 42.1829 23.8845 42.1824 23.8809C42.1766 23.857 42.1702 23.8381 42.1463 23.792C42.1041 23.7108 42.0406 23.6082 41.8931 23.3746C40.8128 21.664 38.6722 18.6622 35.6046 16.1019C32.5406 13.5447 28.6421 11.5 24.0008 11.5C19.3596 11.5 15.461 13.5447 12.397 16.1019ZM10.4747 13.7987C13.8757 10.9602 18.432 8.5 24.0008 8.5C29.5696 8.5 34.1259 10.9602 37.5269 13.7987C40.9244 16.6343 43.2591 19.9193 44.4296 21.7727C44.4441 21.7956 44.4588 21.8187 44.4735 21.842C44.7108 22.2163 44.9737 22.6308 45.1083 23.218C45.2161 23.6884 45.2161 24.3116 45.1083 24.782C44.9737 25.3692 44.7108 25.7837 44.4735 26.158C44.4588 26.1813 44.4441 26.2044 44.4296 26.2273C43.2591 28.0807 40.9244 31.3657 37.5269 34.2013C34.1259 37.0398 29.5696 39.5 24.0008 39.5C18.432 39.5 13.8757 37.0398 10.4747 34.2013C7.07717 31.3657 4.74247 28.0807 3.57199 26.2273C3.55749 26.2044 3.54286 26.1813 3.52812 26.158C3.29076 25.7837 3.02795 25.3692 2.89336 24.782C2.78555 24.3116 2.78555 23.6884 2.89336 23.218C3.02796 22.6308 3.29076 22.2163 3.52813 21.842C3.54286 21.8187 3.55749 21.7956 3.57199 21.7727C4.74246 19.9193 7.07717 16.6343 10.4747 13.7987ZM24.0008 19.5C21.5155 19.5 19.5008 21.5147 19.5008 24C19.5008 26.4853 21.5155 28.5 24.0008 28.5C26.4861 28.5 28.5008 26.4853 28.5008 24C28.5008 21.5147 26.4861 19.5 24.0008 19.5ZM16.5008 24C16.5008 19.8579 19.8587 16.5 24.0008 16.5C28.1429 16.5 31.5008 19.8579 31.5008 24C31.5008 28.1421 28.1429 31.5 24.0008 31.5C19.8587 31.5 16.5008 28.1421 16.5008 24Z" fill="currentColor"/>
</g>
</svg>
