<svg width="453" height="51" viewBox="0 0 453 51" fill="none" xmlns="http://www.w3.org/2000/svg">
<path d="M15.38 46.51V0.349976H0.76001V50.3H58.49V46.51H15.38Z" fill="#0A3A5D"/>
<path d="M148.55 0.349976V27.22C148.55 41.77 142.53 46.3 122.97 46.3C103.41 46.3 98 41.7 98 27.22V0.349976H82.97V26.68C82.97 44.41 93.26 50.97 117.83 50.97C143.81 50.97 152.68 45.29 152.68 27.15V0.349976H148.55Z" fill="#0A3A5D"/>
<path d="M211.24 11.78V27.88L180.01 0.349976H198.21L211.24 11.78Z" fill="url(#paint0_linear_677_4724)"/>
<path d="M254.39 0.349976L224.2 23.16L214.36 30.59L187.99 50.3H181.51L211.24 27.88L221.11 20.44L247.76 0.349976H254.39Z" fill="#0A3A5D"/>
<path d="M255.13 50.3H237.05L224.2 39.15V23.16L255.13 50.3Z" fill="url(#paint1_linear_677_4724)"/>
<path d="M322.27 0.349976H309.82L277.34 50.3H282L291.07 36.29H329.98L339.26 50.3H355.36L322.27 0.349976ZM293.51 32.5L310.29 6.57996L327.48 32.5H293.51Z" fill="#0A3A5D"/>
<path d="M431.42 30.13C444.15 28.57 451.32 23.97 451.32 15.51C451.32 4.40998 439.82 0.349976 420.12 0.349976H384.26V50.3H398.6V30.74H415.11L434.87 50.3H452.2L431.42 30.13ZM398.6 27.02V4.07996H419.31C431.63 4.07996 436.63 6.98998 436.63 15.51C436.63 24.03 431.63 27.02 419.31 27.02H398.6Z" fill="#0A3A5D"/>
<defs>
<linearGradient id="paint0_linear_677_4724" x1="179.55" y1="-8.50002" x2="215.19" y2="23.79" gradientUnits="userSpaceOnUse">
<stop stop-color="#E6E6E6"/>
<stop offset="1" stop-color="#999999"/>
</linearGradient>
<linearGradient id="paint1_linear_677_4724" x1="255.13" y1="58.73" x2="221.43" y2="28.2" gradientUnits="userSpaceOnUse">
<stop stop-color="#E6E6E6"/>
<stop offset="1" stop-color="#999999"/>
</linearGradient>
</defs>
</svg>
